<?xml version="1.0" standalone="no"?>
<!DOCTYPE svg PUBLIC "-//W3C//DTD SVG 20010904//EN"
 "http://www.w3.org/TR/2001/REC-SVG-20010904/DTD/svg10.dtd">
<svg version="1.0" xmlns="http://www.w3.org/2000/svg"
 width="106.000000pt" height="102.000000pt" viewBox="0 0 106.000000 102.000000"
 preserveAspectRatio="xMidYMid meet">

<g transform="translate(0.000000,102.000000) scale(0.100000,-0.100000)"
fill="#000000" stroke="none">
<path d="M662 890 c0 -14 2 -19 5 -12 2 6 2 18 0 25 -3 6 -5 1 -5 -13z"/>
<path d="M531 874 c0 -11 3 -14 6 -6 3 7 2 16 -1 19 -3 4 -6 -2 -5 -13z"/>
<path d="M581 813 c-1 -61 17 -101 40 -88 17 11 10 71 -10 89 -11 10 -22 28
-24 40 -2 11 -5 -7 -6 -41z"/>
<path d="M531 814 c0 -11 3 -14 6 -6 3 7 2 16 -1 19 -3 4 -6 -2 -5 -13z"/>
<path d="M661 814 c0 -11 3 -14 6 -6 3 7 2 16 -1 19 -3 4 -6 -2 -5 -13z"/>
<path d="M500 777 c0 -22 58 -97 75 -97 23 0 18 44 -7 66 -40 33 -68 46 -68
31z"/>
<path d="M682 750 c-7 -11 -19 -20 -26 -20 -19 0 -56 -48 -56 -71 0 -43 51 -7
84 59 19 38 18 63 -2 32z"/>
<path d="M490 724 c0 -2 7 -21 15 -42 18 -43 53 -82 72 -82 21 0 15 39 -9 60
-13 11 -35 31 -50 45 -16 13 -28 22 -28 19z"/>
<path d="M295 659 c10 -31 44 -79 56 -79 5 0 12 7 16 17 4 11 -3 24 -23 40
-16 13 -35 29 -43 35 -11 9 -12 6 -6 -13z"/>
<path d="M684 666 c-3 -9 -12 -16 -19 -16 -19 0 -65 -50 -65 -71 0 -25 25 -24
49 2 24 26 55 89 47 96 -3 3 -8 -2 -12 -11z"/>
<path d="M495 618 c18 -57 59 -108 87 -108 20 0 5 44 -23 70 -72 65 -72 65
-64 38z"/>
<path d="M388 602 c-20 -33 -23 -68 -9 -77 16 -9 32 33 29 71 l-3 36 -17 -30z"/>
<path d="M255 591 c27 -31 73 -54 93 -46 15 6 14 9 -7 26 -13 10 -35 19 -50
19 -15 0 -33 6 -41 13 -8 6 -6 1 5 -12z"/>
<path d="M680 583 c-8 -8 -30 -25 -47 -39 -32 -25 -47 -74 -23 -74 18 0 60 48
76 86 17 41 16 47 -6 27z"/>
<path d="M431 575 c-1 -11 -8 -29 -16 -39 -17 -22 -20 -76 -5 -76 18 0 31 41
27 88 -2 26 -4 38 -6 27z"/>
<path d="M495 535 c13 -60 70 -123 92 -101 12 12 -21 68 -48 81 -15 8 -33 23
-39 32 -9 15 -10 12 -5 -12z"/>
<path d="M308 509 c34 -31 72 -38 72 -15 0 19 -15 28 -64 37 l-41 7 33 -29z"/>
<path d="M690 511 c0 -6 -16 -21 -35 -33 -20 -11 -42 -33 -51 -49 -13 -26 -13
-30 1 -35 9 -4 25 2 37 12 23 21 63 102 54 111 -3 4 -6 1 -6 -6z"/>
<path d="M448 482 c-19 -32 -24 -82 -8 -82 16 0 31 40 28 76 l-3 36 -17 -30z"/>
<path d="M310 470 c0 -12 64 -50 84 -50 20 0 21 14 1 30 -18 15 -85 31 -85 20z"/>
<path d="M490 462 c0 -21 36 -86 59 -106 16 -15 24 -17 33 -8 16 16 -4 56 -39
78 -15 10 -34 24 -40 33 -9 10 -13 11 -13 3z"/>
<path d="M686 422 c-4 -11 -20 -25 -37 -32 -33 -14 -62 -59 -50 -79 7 -10 12
-10 30 1 23 13 78 114 68 124 -3 3 -8 -3 -11 -14z"/>
<path d="M360 389 c32 -27 80 -39 80 -20 0 16 -30 34 -73 41 l-42 8 35 -29z"/>
<path d="M455 379 c-4 -12 -2 -26 4 -32 8 -8 11 -2 11 21 0 37 -6 41 -15 11z"/>
<path d="M486 380 c9 -37 53 -110 70 -117 9 -3 20 -1 25 4 16 16 -10 60 -46
77 -17 9 -37 26 -43 38 -12 23 -12 23 -6 -2z"/>
<path d="M388 331 c30 -29 23 -46 -8 -18 -8 6 -1 -3 15 -21 34 -38 81 -66 95
-57 6 4 25 -10 44 -29 26 -28 41 -36 69 -36 32 0 39 5 57 40 23 46 26 63 5 36
-25 -33 -26 -12 -1 25 12 19 26 48 30 64 6 29 6 29 -7 7 -7 -13 -24 -29 -37
-35 -37 -19 -66 -63 -52 -80 7 -8 9 -17 5 -20 -11 -12 -21 -8 -26 12 -5 21
-80 74 -85 60 -6 -15 -22 1 -22 20 0 25 -21 41 -59 46 -17 2 -36 6 -43 10 -7
4 2 -7 20 -24z"/>
<path d="M446 205 c35 -30 63 -40 75 -28 15 15 -23 42 -65 48 l-38 4 28 -24z"/>
</g>
</svg>
